<?xml version="1.0" encoding="utf-8"?>
<!-- Generator: Adobe Illustrator 21.0.0, SVG Export Plug-In . SVG Version: 6.00 Build 0)  -->
<svg version="1.1" id="Camada_1" xmlns="http://www.w3.org/2000/svg" xmlns:xlink="http://www.w3.org/1999/xlink" x="0px" y="0px"
	 viewBox="0 0 200 200" style="enable-background:new 0 0 200 200;" xml:space="preserve">
<style type="text/css">
	.st0{fill:#F0F0F0;}
</style>
<g>
	<circle class="st0" cx="84.7" cy="113.3" r="1.4"/>
	<circle class="st0" cx="91" cy="113.3" r="1.4"/>
	<circle class="st0" cx="103.7" cy="113.3" r="1.4"/>
	<circle class="st0" cx="97.4" cy="113.3" r="1.4"/>
	<circle class="st0" cx="78.3" cy="113.3" r="1.4"/>
	<circle class="st0" cx="110.1" cy="113.3" r="1.4"/>
	<circle class="st0" cx="59.3" cy="113.3" r="1.4"/>
	<circle class="st0" cx="52.9" cy="113.3" r="1.4"/>
	<circle class="st0" cx="72" cy="113.3" r="1.4"/>
	<circle class="st0" cx="65.6" cy="113.3" r="1.4"/>
	<path class="st0" d="M-18-3v206h225V-3H-18z M12,106.3c-3.3-2.4-7.3-4.7-7.3-4.7l10.6-0.2l1.8,0.6l0,0l15.8,5.6l-19.5-0.2L12,106.3
		z M131.7,130.5c-4.8,0-21.7-0.3-22.1-2.9c0,0,0,0,0,0c-0.1-0.2-0.1-0.6-0.2-1.4c0.1-4.9,22.8-3.8,25.4-3.8c2.6,0,1.6,5.6,1.6,5.6
		S136.5,130.5,131.7,130.5z M176.6,127.5c-5.5,0-39.3,0.6-39.3,0.6s1-6.5-1.7-6.5c-2.7,0-27-1.3-27.1,4.4c0,0.9,0.1,1.4,0.2,1.6
		c-4.3,0-40,3.4-82.4-10.6c-7-2.4-8.9-2.6-10-8.9l20.8,0.2l-15.8-5.6L13.4,75c0,0-1.5-3.8-0.3-4.9c1.2-1.1,6.8-0.8,8.5,0.3
		C23.3,71.5,44.4,99,44.4,99s15.3,4.1,21,6.1c25.2,1.3,92.3-1.4,115.9,6.3c12.3,4.7,14,7.5,14,9.8
		C195.3,123.6,182.2,127.5,176.6,127.5z"/>
	<circle class="st0" cx="145.8" cy="113.3" r="1.4"/>
	<circle class="st0" cx="152.2" cy="113.3" r="1.4"/>
	<circle class="st0" cx="158.5" cy="113.3" r="1.4"/>
	<circle class="st0" cx="116.4" cy="113.3" r="1.4"/>
	<circle class="st0" cx="164.9" cy="113.3" r="1.4"/>
	<circle class="st0" cx="122.8" cy="113.3" r="1.4"/>
	<circle class="st0" cx="133.1" cy="113.3" r="1.4"/>
	<circle class="st0" cx="139.5" cy="113.3" r="1.4"/>
	<path class="st0" d="M175.4,114.2c-0.1,1.8,6.7,1.3,6.7,1.3l5.6-0.1c-0.2-0.1-6.2-3-9.1-3.7C176.9,111.6,175.5,112.2,175.4,114.2z"
		/>
</g>
</svg>
