<?xml version="1.0" encoding="utf-8"?>
<!-- Generator: Adobe Illustrator 21.0.0, SVG Export Plug-In . SVG Version: 6.00 Build 0)  -->
<svg version="1.1" id="Camada_1" xmlns="http://www.w3.org/2000/svg" xmlns:xlink="http://www.w3.org/1999/xlink" x="0px" y="0px"
	 viewBox="0 0 200 200" style="enable-background:new 0 0 200 200;" xml:space="preserve">
<style type="text/css">
	.st0{fill:#406466;}
	.st1{fill:#9FC1C5;}
	.st2{fill:#FFFFFF;}
	.st3{fill:#FFFFFF;stroke:#FFFFFF;stroke-miterlimit:10;}
	.st4{fill:#F0F0F0;}
</style>
<g id="XMLID_967_">
	<path id="XMLID_1065_" class="st0" d="M-82.5-48.9c-2.6,0-25.3-1.1-25.4,3.8c0,0.8,0.1,1.2,0.2,1.4c0,0,0,0,0,0
		c0.4,2.5,17.4,2.9,22.1,2.9s4.6-2.5,4.6-2.5S-79.9-48.9-82.5-48.9z"/>
	<path id="XMLID_1064_" class="st0" d="M-184.2-63.8l-15.8-5.6l0,0l-1.8-0.6l-10.6,0.2c0,0,3.9,2.3,7.3,4.7l1.4,1.1L-184.2-63.8z"/>
	<circle id="XMLID_1062_" class="st1" cx="-132.6" cy="-58.1" r="1.4"/>
	<circle id="XMLID_1061_" class="st1" cx="-113.5" cy="-58.1" r="1.4"/>
	<circle id="XMLID_1059_" class="st1" cx="-138.9" cy="-58.1" r="1.4"/>
	<circle id="XMLID_1058_" class="st1" cx="-126.2" cy="-58.1" r="1.4"/>
	<circle id="XMLID_1056_" class="st1" cx="-119.9" cy="-58.1" r="1.4"/>
	<circle id="XMLID_1055_" class="st1" cx="-107.2" cy="-58.1" r="1.4"/>
	<circle id="XMLID_1053_" class="st1" cx="-164.3" cy="-58.1" r="1.4"/>
	<circle id="XMLID_1052_" class="st1" cx="-145.3" cy="-58.1" r="1.4"/>
	<circle id="XMLID_1050_" class="st1" cx="-158" cy="-58.1" r="1.4"/>
	<circle id="XMLID_1049_" class="st1" cx="-151.6" cy="-58.1" r="1.4"/>
	<circle id="XMLID_1047_" class="st1" cx="-58.7" cy="-58.1" r="1.4"/>
	<circle id="XMLID_1046_" class="st1" cx="-100.8" cy="-58.1" r="1.4"/>
	<circle id="XMLID_1040_" class="st1" cx="-65.1" cy="-58.1" r="1.4"/>
	<circle id="XMLID_1038_" class="st1" cx="-52.4" cy="-58.1" r="1.4"/>
	<circle id="XMLID_1034_" class="st1" cx="-71.4" cy="-58.1" r="1.4"/>
	<circle id="XMLID_1033_" class="st1" cx="-94.5" cy="-58.1" r="1.4"/>
	<circle id="XMLID_1031_" class="st1" cx="-77.8" cy="-58.1" r="1.4"/>
	<circle id="XMLID_1030_" class="st1" cx="-84.1" cy="-58.1" r="1.4"/>
	<path id="XMLID_995_" class="st0" d="M-36-60c-23.6-7.7-90.7-5-115.9-6.3c-5.6-2-21-6.1-21-6.1s-21.1-27.5-22.8-28.6
		c-1.7-1.1-7.3-1.4-8.5-0.3c-1.2,1.1,0.3,4.9,0.3,4.9l7.9,27.8l15.8,5.6l-20.8-0.2c1.1,6.2,3,6.4,10,8.9
		c42.4,13.9,78.2,10.6,82.4,10.6c-0.1-0.2-0.2-0.7-0.2-1.6c0.1-5.7,24.3-4.4,27.1-4.4s1.7,6.5,1.7,6.5s33.8-0.6,39.3-0.6
		c5.5,0,18.6-3.9,18.6-6.3C-22-52.5-23.7-55.3-36-60z M-164.3-56.7c-0.8,0-1.4-0.6-1.4-1.4s0.6-1.4,1.4-1.4s1.4,0.6,1.4,1.4
		S-163.6-56.7-164.3-56.7z M-158-56.7c-0.8,0-1.4-0.6-1.4-1.4s0.6-1.4,1.4-1.4c0.8,0,1.4,0.6,1.4,1.4S-157.2-56.7-158-56.7z
		 M-151.6-56.7c-0.8,0-1.4-0.6-1.4-1.4s0.6-1.4,1.4-1.4c0.8,0,1.4,0.6,1.4,1.4S-150.9-56.7-151.6-56.7z M-145.3-56.7
		c-0.8,0-1.4-0.6-1.4-1.4s0.6-1.4,1.4-1.4c0.8,0,1.4,0.6,1.4,1.4S-144.5-56.7-145.3-56.7z M-138.9-56.7c-0.8,0-1.4-0.6-1.4-1.4
		s0.6-1.4,1.4-1.4s1.4,0.6,1.4,1.4S-138.2-56.7-138.9-56.7z M-132.6-56.7c-0.8,0-1.4-0.6-1.4-1.4s0.6-1.4,1.4-1.4
		c0.8,0,1.4,0.6,1.4,1.4S-131.8-56.7-132.6-56.7z M-126.2-56.7c-0.8,0-1.4-0.6-1.4-1.4s0.6-1.4,1.4-1.4c0.8,0,1.4,0.6,1.4,1.4
		S-125.5-56.7-126.2-56.7z M-119.9-56.7c-0.8,0-1.4-0.6-1.4-1.4s0.6-1.4,1.4-1.4c0.8,0,1.4,0.6,1.4,1.4S-119.1-56.7-119.9-56.7z
		 M-113.5-56.7c-0.8,0-1.4-0.6-1.4-1.4s0.6-1.4,1.4-1.4c0.8,0,1.4,0.6,1.4,1.4S-112.8-56.7-113.5-56.7z M-107.2-56.7
		c-0.8,0-1.4-0.6-1.4-1.4s0.6-1.4,1.4-1.4c0.8,0,1.4,0.6,1.4,1.4S-106.4-56.7-107.2-56.7z M-100.8-56.7c-0.8,0-1.4-0.6-1.4-1.4
		s0.6-1.4,1.4-1.4c0.8,0,1.4,0.6,1.4,1.4S-100.1-56.7-100.8-56.7z M-94.5-56.7c-0.8,0-1.4-0.6-1.4-1.4s0.6-1.4,1.4-1.4
		c0.8,0,1.4,0.6,1.4,1.4S-93.7-56.7-94.5-56.7z M-84.1-56.7c-0.8,0-1.4-0.6-1.4-1.4s0.6-1.4,1.4-1.4c0.8,0,1.4,0.6,1.4,1.4
		S-83.4-56.7-84.1-56.7z M-77.8-56.7c-0.8,0-1.4-0.6-1.4-1.4s0.6-1.4,1.4-1.4c0.8,0,1.4,0.6,1.4,1.4S-77-56.7-77.8-56.7z
		 M-71.4-56.7c-0.8,0-1.4-0.6-1.4-1.4s0.6-1.4,1.4-1.4c0.8,0,1.4,0.6,1.4,1.4S-70.7-56.7-71.4-56.7z M-65.1-56.7
		c-0.8,0-1.4-0.6-1.4-1.4s0.6-1.4,1.4-1.4c0.8,0,1.4,0.6,1.4,1.4S-64.3-56.7-65.1-56.7z M-58.7-56.7c-0.8,0-1.4-0.6-1.4-1.4
		s0.6-1.4,1.4-1.4s1.4,0.6,1.4,1.4S-58-56.7-58.7-56.7z M-52.4-56.7c-0.8,0-1.4-0.6-1.4-1.4s0.6-1.4,1.4-1.4s1.4,0.6,1.4,1.4
		S-51.6-56.7-52.4-56.7z"/>
	<path id="XMLID_990_" class="st2" d="M-41.9-57.2c-0.1,1.8,6.7,1.3,6.7,1.3l5.6-0.1c-0.2-0.1-6.2-3-9.1-3.7
		C-40.3-59.8-41.8-59.2-41.9-57.2z"/>
	<circle id="XMLID_989_" class="st3" cx="-52.4" cy="-58.1" r="1.4"/>
	<circle id="XMLID_988_" class="st3" cx="-58.7" cy="-58.1" r="1.4"/>
	<circle id="XMLID_987_" class="st3" cx="-65.1" cy="-58.1" r="1.4"/>
	<circle id="XMLID_986_" class="st3" cx="-71.4" cy="-58.1" r="1.4"/>
	<circle id="XMLID_985_" class="st3" cx="-77.8" cy="-58.1" r="1.4"/>
	<circle id="XMLID_984_" class="st3" cx="-84.1" cy="-58.1" r="1.4"/>
	<circle id="XMLID_983_" class="st3" cx="-94.5" cy="-58.1" r="1.4"/>
	<circle id="XMLID_982_" class="st3" cx="-100.8" cy="-58.1" r="1.4"/>
	<circle id="XMLID_981_" class="st3" cx="-107.2" cy="-58.1" r="1.4"/>
	<circle id="XMLID_976_" class="st3" cx="-113.5" cy="-58.1" r="1.4"/>
	<circle id="XMLID_975_" class="st3" cx="-119.9" cy="-58.1" r="1.4"/>
	<circle id="XMLID_974_" class="st3" cx="-126.2" cy="-58.1" r="1.4"/>
	<circle id="XMLID_973_" class="st3" cx="-132.6" cy="-58.1" r="1.4"/>
	<circle id="XMLID_972_" class="st3" cx="-138.9" cy="-58.1" r="1.4"/>
	<circle id="XMLID_971_" class="st3" cx="-145.3" cy="-58.1" r="1.4"/>
	<circle id="XMLID_970_" class="st3" cx="-151.6" cy="-58.1" r="1.4"/>
	<circle id="XMLID_969_" class="st3" cx="-158" cy="-58.1" r="1.4"/>
	<circle id="XMLID_968_" class="st3" cx="-164.3" cy="-58.1" r="1.4"/>
</g>
<g id="XMLID_2_">
	<path id="XMLID_21_" class="st0" d="M-336,129.6c0,0,0-2.9,0-3.7c1.5-0.5,1.8-1.2,1.8-2.1c0-0.9-1-1.6-2-1.6c0.2-0.7,0.2-1.4,0.1-2
		l-4.4-0.1c0,0-1.4,0.1-1.4-1.8c0-1.8,1.2-2,1.2-2h2.3c-6.4-5.2-23.5-5.3-23.5-5.3l-4.5-0.4l-3.9-0.1c0,0-10.1-10.8-10.4-11
		c-1.8-1.8-5.7-1.9-5.7-1.9h-25.8c-5.3-0.4-11.3,6.6-16.8,11.2c-9.3,1.3-11.6,1.2-13.2,3.1c-1.6,1.9-2.3,5.2-2.3,5.2s-0.2,8,0,11.7
		c0.7,0.9,4.1,1.7,8.4,2.4c-0.1-0.4-0.1-0.9-0.1-1.3c0-6,4.9-11,11-11c6,0,11,4.9,11,11c0,1.4-0.2,2.6-0.7,3.8c0.2,0,0.2,0,0.2,0
		l51.4,0c-0.4-1.2-0.7-2.5-0.7-3.8c0-6,4.9-11,11-11c6,0,11,4.9,11,11c0,1.3-0.2,2.6-0.7,3.8l0.2,0l6.8,0c0,0,1.6-0.6,1.6-2.1
		S-336,129.6-336,129.6z M-377.4,110.6H-411c-3.9-0.2-2.2-3.9-2.2-3.9s4.7-4.7,6.2-6.2c1.5-1.5,2.8-1.1,3.6-1.1
		c4.5-0.1,13.9,0.2,16.8,0.2c2,0,2.9,1.3,2.9,1.3s5,6.1,6.5,8C-375.8,110.6-377.4,110.6-377.4,110.6z"/>
	<path id="XMLID_17_" class="st0" d="M-425.4,120.2c-5.4,0-9.7,4.4-9.7,9.7c0,1.2,0.2,2.3,0.6,3.4c1.4,3.7,4.9,6.3,9.1,6.3
		c4.2,0,7.7-2.6,9.1-6.4c0.4-1,0.6-2.2,0.6-3.4C-415.7,124.5-420,120.2-425.4,120.2z"/>
	<path id="XMLID_10_" class="st0" d="M-353.2,120.2c-5.4,0-9.7,4.4-9.7,9.7c0,1.2,0.2,2.3,0.6,3.4c1.4,3.7,4.9,6.3,9.1,6.3
		c4.2,0,7.7-2.6,9.1-6.4c0.4-1,0.6-2.2,0.6-3.4C-343.5,124.5-347.8,120.2-353.2,120.2z"/>
</g>
<g>
	<path class="st4" d="M67.8,99.3h-2c-0.2,0-0.3,0.1-0.3,0.3v2.9c0,0.2,0.1,0.3,0.3,0.3h2c0.2,0,0.3-0.1,0.3-0.3v-2.9
		C68.1,99.5,68,99.3,67.8,99.3z"/>
	<circle class="st4" cx="63.3" cy="115" r="3.4"/>
	<circle class="st4" cx="54.4" cy="115" r="3.4"/>
	<circle class="st4" cx="72.5" cy="115" r="3.4"/>
	<path class="st4" d="M78.9,102.6v-2.9c0-0.2-0.1-0.3-0.3-0.3h-2c-0.2,0-0.3,0.1-0.3,0.3v2.9c0,0.2,0.1,0.3,0.3,0.3h2
		C78.7,102.9,78.9,102.7,78.9,102.6z"/>
	<path class="st4" d="M82,102.9h2c0.2,0,0.3-0.1,0.3-0.3v-2.9c0-0.2-0.1-0.3-0.3-0.3h-2c-0.2,0-0.3,0.1-0.3,0.3v2.9
		C81.7,102.7,81.8,102.9,82,102.9z"/>
	<path class="st4" d="M52.1,102.6v-2.9c0-0.2-0.1-0.3-0.3-0.3h-2c-0.2,0-0.3,0.1-0.3,0.3v2.9c0,0.2,0.1,0.3,0.3,0.3h2
		C51.9,102.9,52.1,102.7,52.1,102.6z"/>
	<path class="st4" d="M60.5,102.9h2c0.2,0,0.3-0.1,0.3-0.3v-2.9c0-0.2-0.1-0.3-0.3-0.3h-2c-0.2,0-0.3,0.1-0.3,0.3v2.9
		C60.2,102.7,60.3,102.9,60.5,102.9z"/>
	<path class="st4" d="M98.9,99.3h-2c-0.2,0-0.3,0.1-0.3,0.3v2.9c0,0.2,0.1,0.3,0.3,0.3h2c0.2,0,0.3-0.1,0.3-0.3v-2.9
		C99.2,99.5,99,99.3,98.9,99.3z"/>
	<path class="st4" d="M71.2,102.9h2c0.2,0,0.3-0.1,0.3-0.3v-2.9c0-0.2-0.1-0.3-0.3-0.3h-2c-0.2,0-0.3,0.1-0.3,0.3v2.9
		C70.9,102.7,71.1,102.9,71.2,102.9z"/>
	<path class="st4" d="M46.4,99.3h-2c-0.2,0-0.3,0.1-0.3,0.3v2.9c0,0.2,0.1,0.3,0.3,0.3h2c0.2,0,0.3-0.1,0.3-0.3v-2.9
		C46.7,99.5,46.5,99.3,46.4,99.3z"/>
	<path class="st4" d="M55.1,102.9h2c0.2,0,0.3-0.1,0.3-0.3v-2.9c0-0.2-0.1-0.3-0.3-0.3h-2c-0.2,0-0.3,0.1-0.3,0.3v2.9
		C54.8,102.7,55,102.9,55.1,102.9z"/>
	<circle class="st4" cx="81.4" cy="115" r="3.4"/>
	<path class="st4" d="M104.2,99.3h-2c-0.2,0-0.3,0.1-0.3,0.3v2.9c0,0.2,0.1,0.3,0.3,0.3h2c0.2,0,0.3-0.1,0.3-0.3v-2.9
		C104.5,99.5,104.4,99.3,104.2,99.3z"/>
	<path class="st4" d="M131.4,99.7c0-0.2-0.1-0.3-0.3-0.3h-2c-0.2,0-0.3,0.1-0.3,0.3v2.9c0,0.2,0.1,0.3,0.3,0.3h2
		c0.2,0,0.3-0.1,0.3-0.3V99.7z"/>
	<path class="st4" d="M120.3,99.3h-2c-0.2,0-0.3,0.1-0.3,0.3v2.9c0,0.2,0.1,0.3,0.3,0.3h2c0.2,0,0.3-0.1,0.3-0.3v-2.9
		C120.6,99.5,120.5,99.3,120.3,99.3z"/>
	<path class="st4" d="M-12.5-3v206h225V-3H-12.5z M171.7,124.7h-2.9l-6.5,13.6H28.8l-8.9-27.7h13.6l8.6-14.1l-4.4-0.3l-0.4-3.9h41.3
		l3.4-5.1v-5.2h6.4l2.1-17.8h1.2v-2.5h6.9V64h1.7l1.6,17.7l2.2,0.1l1.4-13.7h0.9v-1.8h5.7v1.9h1l1.2,13.2h10.3V87l5,5l9,0.2v4.1
		l17.5,14.3h23.8L171.7,124.7z"/>
	<circle class="st4" cx="134.8" cy="115" r="3.4"/>
	<circle class="st4" cx="125.3" cy="115" r="3.4"/>
	<circle class="st4" cx="116.7" cy="115" r="3.4"/>
	<path class="st4" d="M134.5,102.9h2c0.2,0,0.3-0.1,0.3-0.3v-2.9c0-0.2-0.1-0.3-0.3-0.3h-2c-0.2,0-0.3,0.1-0.3,0.3v2.9
		C134.2,102.7,134.3,102.9,134.5,102.9z"/>
	<path class="st4" d="M109.6,99.3h-2c-0.2,0-0.3,0.1-0.3,0.3v2.9c0,0.2,0.1,0.3,0.3,0.3h2c0.2,0,0.3-0.1,0.3-0.3v-2.9
		C109.9,99.5,109.8,99.3,109.6,99.3z"/>
	<path class="st4" d="M115.3,102.6v-2.9c0-0.2-0.1-0.3-0.3-0.3h-2c-0.2,0-0.3,0.1-0.3,0.3v2.9c0,0.2,0.1,0.3,0.3,0.3h2
		C115.1,102.9,115.3,102.7,115.3,102.6z"/>
	<path class="st4" d="M123.7,102.9h2c0.2,0,0.3-0.1,0.3-0.3v-2.9c0-0.2-0.1-0.3-0.3-0.3h-2c-0.2,0-0.3,0.1-0.3,0.3v2.9
		C123.4,102.7,123.6,102.9,123.7,102.9z"/>
</g>
</svg>
