<?xml version="1.0" encoding="utf-8"?>
<!-- Generator: Adobe Illustrator 21.0.0, SVG Export Plug-In . SVG Version: 6.00 Build 0)  -->
<svg version="1.1" id="Camada_1" xmlns="http://www.w3.org/2000/svg" xmlns:xlink="http://www.w3.org/1999/xlink" x="0px" y="0px"
	 viewBox="0 0 200 200" style="enable-background:new 0 0 200 200;" xml:space="preserve">
<style type="text/css">
	.st0{fill:#406466;}
	.st1{fill:#F0F0F0;}
</style>
<g>
	<path class="st0" d="M408.5,105.1c-2.6,0-25.3-1.1-25.4,3.8c0,0.8,0.1,1.2,0.2,1.4c0,0,0,0,0,0c0.4,2.5,17.4,2.9,22.1,2.9
		c4.8,0,4.6-2.5,4.6-2.5S411.1,105.1,408.5,105.1z"/>
	<path class="st0" d="M290.9,84.6L290.9,84.6l-1.8-0.6l-10.6,0.2c0,0,3.9,2.3,7.3,4.7l1.4,1.1l19.5,0.2L290.9,84.6z"/>
	<path class="st0" d="M455,94c-23.6-7.7-90.7-5-115.9-6.3c-5.6-2-21-6.1-21-6.1S297,54.1,295.4,53.1c-1.7-1.1-7.3-1.4-8.5-0.3
		c-1.2,1.1,0.3,4.9,0.3,4.9l7.9,27.8l15.8,5.6l-20.8-0.2c1.1,6.2,3,6.4,10,8.9c42.4,13.9,78.2,10.6,82.4,10.6
		c-0.1-0.2-0.2-0.7-0.2-1.6c0.1-5.7,24.3-4.4,27.1-4.4c2.7,0,1.7,6.5,1.7,6.5s33.8-0.6,39.3-0.6s18.6-3.9,18.6-6.3
		C469,101.5,467.3,98.7,455,94z M326.7,97.3c-0.8,0-1.4-0.6-1.4-1.4c0-0.8,0.6-1.4,1.4-1.4c0.8,0,1.4,0.6,1.4,1.4
		C328,96.6,327.4,97.3,326.7,97.3z M333,97.3c-0.8,0-1.4-0.6-1.4-1.4c0-0.8,0.6-1.4,1.4-1.4s1.4,0.6,1.4,1.4
		C334.4,96.6,333.8,97.3,333,97.3z M339.4,97.3c-0.8,0-1.4-0.6-1.4-1.4c0-0.8,0.6-1.4,1.4-1.4s1.4,0.6,1.4,1.4
		C340.7,96.6,340.1,97.3,339.4,97.3z M345.7,97.3c-0.8,0-1.4-0.6-1.4-1.4c0-0.8,0.6-1.4,1.4-1.4s1.4,0.6,1.4,1.4
		C347.1,96.6,346.5,97.3,345.7,97.3z M352.1,97.3c-0.8,0-1.4-0.6-1.4-1.4c0-0.8,0.6-1.4,1.4-1.4c0.8,0,1.4,0.6,1.4,1.4
		C353.4,96.6,352.8,97.3,352.1,97.3z M358.4,97.3c-0.8,0-1.4-0.6-1.4-1.4c0-0.8,0.6-1.4,1.4-1.4c0.8,0,1.4,0.6,1.4,1.4
		C359.8,96.6,359.2,97.3,358.4,97.3z M364.8,97.3c-0.8,0-1.4-0.6-1.4-1.4c0-0.8,0.6-1.4,1.4-1.4c0.8,0,1.4,0.6,1.4,1.4
		C366.1,96.6,365.5,97.3,364.8,97.3z M371.1,97.3c-0.8,0-1.4-0.6-1.4-1.4c0-0.8,0.6-1.4,1.4-1.4c0.8,0,1.4,0.6,1.4,1.4
		C372.5,96.6,371.9,97.3,371.1,97.3z M377.5,97.3c-0.8,0-1.4-0.6-1.4-1.4c0-0.8,0.6-1.4,1.4-1.4s1.4,0.6,1.4,1.4
		C378.8,96.6,378.2,97.3,377.5,97.3z M383.8,97.3c-0.8,0-1.4-0.6-1.4-1.4c0-0.8,0.6-1.4,1.4-1.4c0.8,0,1.4,0.6,1.4,1.4
		C385.2,96.6,384.6,97.3,383.8,97.3z M390.2,97.3c-0.8,0-1.4-0.6-1.4-1.4c0-0.8,0.6-1.4,1.4-1.4c0.8,0,1.4,0.6,1.4,1.4
		C391.6,96.6,390.9,97.3,390.2,97.3z M396.5,97.3c-0.8,0-1.4-0.6-1.4-1.4c0-0.8,0.6-1.4,1.4-1.4c0.8,0,1.4,0.6,1.4,1.4
		C397.9,96.6,397.3,97.3,396.5,97.3z M406.9,97.3c-0.8,0-1.4-0.6-1.4-1.4c0-0.8,0.6-1.4,1.4-1.4c0.8,0,1.4,0.6,1.4,1.4
		C408.2,96.6,407.6,97.3,406.9,97.3z M413.2,97.3c-0.8,0-1.4-0.6-1.4-1.4c0-0.8,0.6-1.4,1.4-1.4c0.8,0,1.4,0.6,1.4,1.4
		C414.6,96.6,414,97.3,413.2,97.3z M419.6,97.3c-0.8,0-1.4-0.6-1.4-1.4c0-0.8,0.6-1.4,1.4-1.4s1.4,0.6,1.4,1.4
		C420.9,96.6,420.3,97.3,419.6,97.3z M425.9,97.3c-0.8,0-1.4-0.6-1.4-1.4c0-0.8,0.6-1.4,1.4-1.4s1.4,0.6,1.4,1.4
		C427.3,96.6,426.7,97.3,425.9,97.3z M432.3,97.3c-0.8,0-1.4-0.6-1.4-1.4c0-0.8,0.6-1.4,1.4-1.4c0.8,0,1.4,0.6,1.4,1.4
		C433.6,96.6,433,97.3,432.3,97.3z M438.6,97.3c-0.8,0-1.4-0.6-1.4-1.4c0-0.8,0.6-1.4,1.4-1.4c0.8,0,1.4,0.6,1.4,1.4
		C440,96.6,439.4,97.3,438.6,97.3z M455.9,98.1c0,0-6.8,0.5-6.7-1.3c0.1-2,1.6-2.6,3.3-2.6c2.8,0.7,8.9,3.6,9.1,3.7L455.9,98.1z"/>
</g>
<g>
	<path class="st1" d="M-12.5-3v206h225V-3H-12.5z M67.7,117.7c-1.7,4.5-6,7.7-11,7.7c-5,0-9.3-3.2-11-7.6c-0.5-1.3-0.7-2.6-0.7-4.1
		c0-6.5,5.2-11.7,11.7-11.7s11.7,5.2,11.7,11.7C68.4,115.1,68.2,116.5,67.7,117.7z M154.8,117.7c-1.7,4.5-6,7.7-11,7.7
		c-5,0-9.3-3.2-11-7.6c-0.5-1.3-0.7-2.6-0.7-4.1c0-6.5,5.2-11.7,11.7-11.7c6.5,0,11.7,5.2,11.7,11.7
		C155.5,115.1,155.2,116.5,154.8,117.7z M164.5,113.3c0,0,2.1,0.4,2.1,2.2c0,1.7-1.9,2.5-1.9,2.5l-8.2,0l-0.2,0
		c0.5-1.4,0.8-3,0.8-4.6c0-7.3-5.9-13.2-13.2-13.2s-13.2,5.9-13.2,13.2c0,1.6,0.3,3.2,0.8,4.6l-62,0.1c0,0-0.1,0-0.3,0
		c0.5-1.4,0.8-3,0.8-4.6c0-7.3-5.9-13.2-13.2-13.2s-13.2,5.9-13.2,13.2c0,0.5,0,1.1,0.1,1.6c-5.2-0.9-9.3-1.9-10.2-2.9
		c-0.2-4.4,0-14.1,0-14.1s0.9-4,2.8-6.3c1.9-2.3,4.7-2.1,15.9-3.7c6.7-5.5,14-14,20.3-13.5h31.2c0,0,4.7,0.2,6.8,2.3
		c0.3,0.3,12.6,13.3,12.6,13.3l4.7,0.1l5.5,0.5c0,0,20.6,0.2,28.3,6.4h-2.8c0,0-1.5,0.2-1.5,2.4s1.7,2.1,1.7,2.1l5.4,0.1
		c0.1,0.8,0.1,1.6-0.2,2.5c1.1,0,2.4,0.9,2.4,1.9s-0.3,1.9-2.1,2.5C164.5,109.8,164.5,113.3,164.5,113.3z"/>
	<path class="st1" d="M107,78.5c0,0-1-1.5-3.5-1.5c-3.5,0-14.8-0.3-20.2-0.2c-0.9,0-2.5-0.4-4.3,1.4c-1.8,1.8-7.5,7.5-7.5,7.5
		s-2.2,4.5,2.6,4.8h40.5c0,0,1.9,0,0.2-2.3S107,78.5,107,78.5z"/>
</g>
</svg>
