<svg id="Camada_1" data-name="Camada 1" xmlns="http://www.w3.org/2000/svg" viewBox="0 0 70 70"><defs><style>.cls-1{fill:#eaeaea;}</style></defs><title>Prancheta 1</title><path class="cls-1" d="M-4-3V73H73V-3ZM34.72,11.38A10.1,10.1,0,0,1,45,21.3a10.27,10.27,0,0,1-20.53,0A10.1,10.1,0,0,1,34.72,11.38ZM28.6,58.58C25.73,59,16.79,56,16.79,56V43.11C18.22,33.5,30.14,32,30.14,32S29.37,44.81,28.6,58.58ZM34.94,57l-3.67-4,2.52-14.92L31.63,35.8l3.12-3.37.19-.2.19.2,3.12,3.37L36.1,38.13,38.61,53Zm18.27-1.08s-8.94,3-11.81,2.54c-.77-13.68-1.55-26.4-1.55-26.4s11.92,1.48,13.36,11Z"/></svg>