<svg id="Camada_1" data-name="Camada 1" xmlns="http://www.w3.org/2000/svg" viewBox="0 0 70 70"><defs><style>.cls-1{fill:#eaeaea;}</style></defs><title>2Prancheta 1</title><path class="cls-1" d="M-3.5-3V73h77V-3ZM48.07,8.65A10.33,10.33,0,1,1,37.74,19,10.33,10.33,0,0,1,48.07,8.65Zm-6.67,29a6.4,6.4,0,1,1-6.4-6.4A6.4,6.4,0,0,1,41.4,37.63Zm-19.47-29A10.33,10.33,0,1,1,11.6,19,10.33,10.33,0,0,1,21.93,8.65Zm.86,48.59A60.3,60.3,0,0,1,5.09,54.35l-.74-.23,0-.17V43.23A13.24,13.24,0,0,1,17.55,30h8.76a13.13,13.13,0,0,1,4.87.94A7.68,7.68,0,0,0,30,43.46a9.51,9.51,0,0,0-7.19,9.2Zm23.12,2.07h0l-.43.22a22.91,22.91,0,0,1-9.73,1.83,37.31,37.31,0,0,1-11.15-1.8l-.46-.14,0-.1V52.66a8.21,8.21,0,0,1,8.2-8.2h5.43a8.2,8.2,0,0,1,8.19,8.2ZM65.67,54l0,.17-.74.23a60.31,60.31,0,0,1-17.69,2.89V52.66A9.49,9.49,0,0,0,40,43.46a7.68,7.68,0,0,0-1.2-12.51A13.12,13.12,0,0,1,43.69,30h8.76A13.24,13.24,0,0,1,65.67,43.23Z"/></svg>