<svg id="Camada_1" data-name="Camada 1" xmlns="http://www.w3.org/2000/svg" viewBox="0 0 70 70"><defs><style>.cls-1{fill:#eaeaea;}</style></defs><title>3Prancheta 1</title><path class="cls-1" d="M-3.5-3V73h77V-3ZM62.65,21.87c.05.52-.14.68-.55.79a17,17,0,0,1-8.35.74,24.4,24.4,0,0,1-7-2.52A24.75,24.75,0,0,0,59,20C60.78,20.72,62.6,21.35,62.65,21.87Zm-12.8-9.31a1.58,1.58,0,0,1,2.7-.21,6.69,6.69,0,0,1,6.09,6.92,23.68,23.68,0,0,1-15.19,0S44.08,13.18,49.86,12.55ZM43.3,20.11a11.37,11.37,0,0,0,2.05.66,27.15,27.15,0,0,0,8.35,3.46,15.13,15.13,0,0,0,5.63,0,8.34,8.34,0,0,1-16.65-.63A10,10,0,0,1,43.3,20.11ZM34.18,55.66h-.06l-.56.28c-.28.14-4.83,2.38-12.67,2.38A48.59,48.59,0,0,1,6.38,56l-.6-.19,0-.13V47A10.69,10.69,0,0,1,16.43,36.33h7.08A10.68,10.68,0,0,1,34.18,47ZM26.57,22.34a8.34,8.34,0,1,1-13.6.57C10.64,24,6.25,26,4.76,25.63,4.78,24,7.29,21,9.47,20.1c1.61-.63,3.56.79,4.48,1.58a8.32,8.32,0,0,1,12-.08c.76-.75,2.84-2.56,4.61-1.95,2.21.77,4.84,3.66,4.92,5.34C33.86,25.48,28.7,23.29,26.57,22.34ZM65.24,51.81h-.06l-.56.28c-.28.14-4.83,2.38-12.67,2.38a48.59,48.59,0,0,1-14.52-2.34l-.6-.19,0-.13V43.15A10.69,10.69,0,0,1,47.49,32.48h7.08A10.68,10.68,0,0,1,65.24,43.15Z"/></svg>