<svg id="Camada_1" data-name="Camada 1" xmlns="http://www.w3.org/2000/svg" viewBox="0 0 70 70"><defs><style>.cls-1{fill:#eaeaea;}</style></defs><title>1Prancheta 1</title><path class="cls-1" d="M-3.5-3V73h77V-3ZM22,9.35,47.9,9.18v2.14l-5.34.16,2.13,5L35,18.21l-9.8-1.73,2.26-5H22ZM45.26,21.59a10.43,10.43,0,1,1-20.86,0,9.39,9.39,0,0,1,.77-3.68L35,19.64l9.63-1.71A10.4,10.4,0,0,1,45.26,21.59ZM28.63,60.77c-2.85.44-11.75-2.63-11.75-2.63V44.86C18.31,35,30.17,33.44,30.17,33.44S29.4,46.61,28.63,60.77Zm6.31-1.62L31.3,55.09l2.5-15.35-2.15-2.4,3.11-3.47.19-.21.19.21,3.11,3.47-2.15,2.4,2.5,15.35ZM53.11,58s-8.89,3.06-11.75,2.62C40.6,46.59,39.83,33.5,39.83,33.5S51.69,35,53.11,44.84Z"/></svg>